HIERARCHY
ROOT Hips
{
	OFFSET -0.001795 -0.223333 0.028219
	CHANNELS 6 Xposition Yposition Zposition Zrotation Yrotation Xrotation 
	JOINT LeftUpLeg
	{
		OFFSET 0.069520 -0.091406 -0.006815
		CHANNELS 3 Zrotation Yrotation Xrotation
		JOINT LeftLeg
		{
			OFFSET 0.034277 -0.375199 -0.004496
			CHANNELS 3 Zrotation Yrotation Xrotation
			JOINT LeftFoot
			{
				OFFSET -0.013596 -0.397961 -0.043693
				CHANNELS 3 Zrotation Yrotation Xrotation
				JOINT LeftToe
				{
					OFFSET 0.026358 -0.055791 0.119288
					CHANNELS 3 Zrotation Yrotation Xrotation
					End Site
					{
						OFFSET 0.000000 0.000000 0.000000
					}
				}
			}
		}
	}
	JOINT RightUpLeg
	{
		OFFSET -0.067670 -0.090522 -0.004320
		CHANNELS 3 Zrotation Yrotation Xrotation
		JOINT RightLeg
		{
			OFFSET -0.038290 -0.382569 -0.008850
			CHANNELS 3 Zrotation Yrotation Xrotation
			JOINT RightFoot
			{
				OFFSET 0.015774 -0.398415 -0.042312
				CHANNELS 3 Zrotation Yrotation Xrotation
				JOINT RightToe
				{
					OFFSET -0.025372 -0.048144 0.123348
					CHANNELS 3 Zrotation Yrotation Xrotation
					End Site
					{
						OFFSET 0.000000 0.000000 0.000000
					}
				}
			}
		}
	}
	JOINT Spine
	{
		OFFSET -0.002533 0.108963 -0.026696
		CHANNELS 3 Zrotation Yrotation Xrotation
		JOINT Spine1
		{
			OFFSET 0.005487 0.135180 0.001092
			CHANNELS 3 Zrotation Yrotation Xrotation
			JOINT Spine2
			{
				OFFSET 0.001457 0.052922 0.025425
				CHANNELS 3 Zrotation Yrotation Xrotation
				JOINT Neck
				{
					OFFSET -0.002778 0.213870 -0.042857
					CHANNELS 3 Zrotation Yrotation Xrotation
					JOINT Head
					{
						OFFSET 0.005152 0.064970 0.051349
						CHANNELS 3 Zrotation Yrotation Xrotation
						End Site
						{
							OFFSET 0.000000 0.000000 0.000000
						}
					}
				}
				JOINT LeftShoulder
				{
					OFFSET 0.078845 0.121749 -0.034090
					CHANNELS 3 Zrotation Yrotation Xrotation
					JOINT LeftArm
					{
						OFFSET 0.090977 0.030469 -0.008868
						CHANNELS 3 Zrotation Yrotation Xrotation
						JOINT LeftForeArm
						{
							OFFSET 0.259612 -0.012772 -0.027456
							CHANNELS 3 Zrotation Yrotation Xrotation
							JOINT LeftHand
							{
								OFFSET 0.249234 0.008986 -0.001171
								CHANNELS 3 Zrotation Yrotation Xrotation
								End Site
								{
									OFFSET 0.000000 0.000000 0.000000
								}
							}
						}
					}
				}
				JOINT RightShoulder
				{
					OFFSET -0.081759 0.118833 -0.038615
					CHANNELS 3 Zrotation Yrotation Xrotation
					JOINT RightArm
					{
						OFFSET -0.096012 0.032551 -0.009143
						CHANNELS 3 Zrotation Yrotation Xrotation
						JOINT RightForeArm
						{
							OFFSET -0.253742 -0.013329 -0.021401
							CHANNELS 3 Zrotation Yrotation Xrotation
							JOINT RightHand
							{
								OFFSET -0.255298 0.007772 -0.005559
								CHANNELS 3 Zrotation Yrotation Xrotation
								End Site
								{
									OFFSET 0.000000 0.000000 0.000000
								}
							}
						}
					}
				}
			}
		}
	}
}
MOTION
Frames: 9
Frame Time: 0.050000
0.000000 0.944071 0.000000 -0.661223 0.745977 1.054120 3.486274 0.213653 4.521682 -3.453131 0.396318 -7.727715 -0.756328 2.429386 9.104067 0.000000 0.000000 0.000000 -1.879288 -0.213905 3.056610 1.614429 -0.240388 -2.645943 -1.384107 -6.646724 8.859146 0.000000 0.000000 0.000000 -2.380754 -0.141360 8.153245 6.187052 -1.100858 -21.176330 -0.973195 0.442251 24.686614 -0.835913 2.268074 -27.175821 0.000000 0.000000 0.000000 -37.030463 -2.603932 -1.402265 -34.565871 -6.421202 -3.808059 -1.607785 -20.212982 1.133350 0.000000 0.000000 0.000000 29.637173 7.586522 3.479250 40.214253 7.432300 -3.524529 -7.241482 17.421190 -0.266463 0.000000 0.000000 0.000000 
0.001475 0.943848 -0.001514 -0.767202 -0.349326 1.333411 3.627927 0.235180 4.812300 -3.873229 0.426862 -8.714014 -0.341867 3.168964 9.454202 0.000000 0.000000 0.000000 -2.039443 -0.111705 2.022880 1.719057 -0.223289 -1.754070 -0.996874 -5.877943 8.579489 0.000000 0.000000 0.000000 -2.446732 -0.121219 7.757981 6.256970 -1.151110 -21.072030 -1.243011 1.361386 25.063957 -0.491107 2.188253 -28.615962 0.000000 0.000000 0.000000 -36.304249 -2.287507 -1.651979 -35.487001 -6.398281 -3.915788 -0.996891 -20.758707 1.067521 0.000000 0.000000 0.000000 29.426599 7.806487 3.739051 40.729049 7.406235 -3.627332 -7.927233 19.557383 -0.398068 0.000000 0.000000 0.000000 
0.003250 0.943829 -0.002990 -0.671369 0.087222 1.550233 3.885297 0.172613 4.108564 -4.657048 0.450011 -8.160841 -0.534110 2.847356 9.372912 0.000000 0.000000 0.000000 -2.311627 -0.089036 1.871616 1.902895 -0.246727 -1.992785 -1.164818 -6.232971 8.757395 0.000000 0.000000 0.000000 -2.078072 -0.154409 7.899137 5.573321 -0.947381 -21.176455 -1.109023 0.570442 25.091438 -0.693299 2.208870 -28.693572 0.000000 0.000000 0.000000 -35.640919 -1.796424 -1.707770 -35.673474 -6.993304 -3.841598 -1.270218 -19.903038 1.075802 0.000000 0.000000 0.000000 29.582286 8.332809 3.867021 40.282928 7.660361 -3.435255 -7.578903 17.896980 -0.328750 0.000000 0.000000 0.000000 
0.005449 0.943942 -0.004075 -0.764129 -0.079144 1.442621 3.806961 0.181945 4.150966 -4.625639 0.451434 -8.116623 -0.446085 2.966038 9.320934 0.000000 0.000000 0.000000 -2.516725 -0.057270 1.583478 2.155548 -0.256891 -1.433029 -1.092458 -6.109501 8.779342 0.000000 0.000000 0.000000 -2.351297 -0.135026 8.038737 6.334550 -1.153248 -21.192873 -1.489580 1.101691 25.397421 -1.056686 2.522300 -29.757755 0.000000 0.000000 0.000000 -36.365429 -1.587376 -2.160365 -35.116091 -6.593376 -3.836308 -1.933866 -20.532845 1.217927 0.000000 0.000000 0.000000 29.952228 8.883901 4.463900 39.832245 7.437230 -3.559298 -7.696668 18.436612 -0.352247 0.000000 0.000000 0.000000 
0.008108 0.944381 -0.004718 -0.857188 -0.086764 1.308752 3.636146 0.187773 4.084010 -4.452962 0.446523 -7.813695 -0.417989 2.986006 9.238257 0.000000 0.000000 0.000000 -2.549075 -0.064757 1.686553 2.074731 -0.249663 -1.441539 -1.038765 -6.087267 9.050590 0.000000 0.000000 0.000000 -2.120377 -0.169638 8.673047 6.214026 -1.154523 -20.808986 -1.456127 1.401892 24.764873 -1.185831 2.626535 -29.273368 0.000000 0.000000 0.000000 -36.126498 -1.638200 -2.282912 -35.129161 -6.745987 -3.703252 -2.082051 -20.550444 1.234502 0.000000 0.000000 0.000000 30.261499 8.748702 4.473351 39.141660 7.703476 -3.406481 -7.402864 18.458607 -0.315948 0.000000 0.000000 0.000000 
0.011374 0.944826 -0.004786 -0.957760 -0.159777 1.375339 3.374104 0.207221 4.182144 -4.192629 0.435840 -8.114559 -0.405645 3.041465 9.353256 0.000000 0.000000 0.000000 -2.814139 -0.046043 1.593807 2.341468 -0.274157 -1.444718 -0.940230 -6.002021 9.385582 0.000000 0.000000 0.000000 -2.212203 -0.162799 8.752860 6.313251 -1.171613 -20.935549 -1.287390 1.360955 25.141694 -1.471227 2.781520 -29.833232 0.000000 0.000000 0.000000 -36.369097 -1.360184 -2.454677 -34.996167 -6.990046 -3.673358 -2.177369 -21.108972 1.293864 0.000000 0.000000 0.000000 30.233477 9.087720 4.681531 38.732064 7.808683 -3.373134 -7.494171 18.762134 -0.341202 0.000000 0.000000 0.000000 
0.015233 0.945077 -0.004117 -1.033191 -0.299370 1.478870 3.029276 0.201511 3.810539 -3.913247 0.426748 -7.555140 -0.259263 3.190799 9.094345 0.000000 0.000000 0.000000 -2.805174 -0.024497 1.325256 1.990065 -0.234066 -1.131233 -0.886172 -5.953452 9.527003 0.000000 0.000000 0.000000 -2.120589 -0.181434 9.264754 6.136547 -1.110172 -21.141364 -1.212034 1.276737 25.149294 -1.427557 2.724671 -29.665906 0.000000 0.000000 0.000000 -36.862395 -1.309565 -2.461068 -34.788559 -6.765930 -3.735434 -2.087604 -21.574744 1.313647 0.000000 0.000000 0.000000 30.426103 9.400078 4.830264 38.271109 7.864196 -3.310538 -7.583473 19.621071 -0.382764 0.000000 0.000000 0.000000 
0.019842 0.945064 -0.002418 -1.252718 -0.526513 1.459086 2.682829 0.213011 3.705229 -3.454008 0.407368 -7.083688 -0.043635 3.405849 8.685589 0.000000 0.000000 0.000000 -2.961055 0.003443 1.048919 2.103268 -0.229624 -0.460600 -0.784886 -5.796957 9.596998 0.000000 0.000000 0.000000 -2.069795 -0.192043 9.545588 6.022620 -1.085498 -21.131477 -1.098499 1.239376 25.196916 -1.392784 2.662573 -29.220568 0.000000 0.000000 0.000000 -36.851364 -1.594793 -2.139423 -34.887525 -6.429728 -3.864592 -1.992949 -21.904071 1.321297 0.000000 0.000000 0.000000 30.727341 9.632903 4.924942 38.169918 7.683816 -3.340793 -7.870798 20.434350 -0.451613 0.000000 0.000000 0.000000 
0.025110 0.944671 0.000432 -1.305744 -1.018259 1.328575 2.213012 0.246960 3.804542 -3.227113 0.397980 -6.572213 0.283219 3.777506 8.208356 0.000000 0.000000 0.000000 -3.175357 0.033434 0.778986 1.858898 -0.180891 0.488629 -0.632730 -5.483377 9.404820 0.000000 0.000000 0.000000 -2.164688 -0.187268 9.867312 5.849116 -1.048053 -21.187807 -0.960241 1.232637 25.277509 -1.445284 2.626042 -28.760987 0.000000 0.000000 0.000000 -36.856663 -1.864873 -1.755285 -34.891297 -6.241770 -3.967834 -2.140829 -21.607600 1.334230 0.000000 0.000000 0.000000 30.968617 9.698053 4.829532 37.720429 7.632824 -3.290359 -7.823479 21.340297 -0.480957 0.000000 0.000000 0.000000 
